<svg xmlns="http://www.w3.org/2000/svg" width="225" height="30" viewBox="60 0 225 30" fill="none">
<path d="M62.4144 6.12015H66.6133L74.0893 18.5577L81.5988 6.12015H85.7642L74.0893 24.1899L62.4144 6.12015Z" fill="white"/>
<path d="M110.43 20.3094H99.3585L97.0956 23.8714H93.0558L104.89 5.80167L116.724 23.8714H112.684L110.422 20.3094H110.43ZM101.295 17.2252H108.452L104.89 11.593L101.295 17.2252Z" fill="white"/>
<path d="M134.199 12.1043V23.8798H130.57V5.81005L148.296 18.1555V6.12853H151.925V24.1983L134.199 12.1043Z" fill="white"/>
<path d="M174.193 23.8798V9.17928H166.24V6.12854H185.81V9.17928H177.822V23.8798H174.193Z" fill="white"/>
<path d="M200.125 23.8798V6.12854H203.754V23.8798H200.125Z" fill="white"/>
<path d="M241.041 22.4801C239.767 23.0919 238.376 23.5361 236.859 23.8043C235.342 24.0725 233.825 24.1983 232.291 24.1983C230.297 24.1983 228.495 23.972 226.886 23.5278C225.276 23.0836 223.902 22.4634 222.762 21.6671C221.631 20.8709 220.751 19.9155 220.139 18.784C219.527 17.661 219.217 16.4122 219.217 15.0293C219.217 13.6464 219.519 12.4228 220.122 11.2913C220.726 10.1599 221.597 9.17926 222.729 8.36629C223.86 7.55332 225.235 6.91636 226.835 6.47216C228.436 6.02796 230.221 5.80167 232.199 5.80167C233.666 5.80167 235.183 5.92738 236.75 6.1872C238.318 6.43863 239.751 6.89121 241.05 7.5198V10.6711C240.647 10.4783 240.161 10.2772 239.583 10.0677C239.005 9.85813 238.359 9.65699 237.63 9.46422C236.901 9.27145 236.097 9.12059 235.225 9.00326C234.353 8.88592 233.423 8.82725 232.426 8.82725C230.875 8.82725 229.517 8.98649 228.352 9.30498C227.187 9.62346 226.215 10.0677 225.444 10.6292C224.673 11.1907 224.086 11.8528 223.692 12.5988C223.299 13.3531 223.106 14.1493 223.106 15.0041C223.106 15.859 223.299 16.6468 223.676 17.3928C224.061 18.1387 224.64 18.7924 225.427 19.354C226.215 19.9155 227.187 20.3597 228.352 20.6698C229.517 20.9883 230.9 21.1475 232.493 21.1475C233.557 21.1475 234.538 21.0805 235.434 20.9548C236.34 20.829 237.144 20.6782 237.857 20.4938C238.569 20.3178 239.189 20.125 239.734 19.9239C240.279 19.7227 240.715 19.5383 241.058 19.3623V22.4801H241.041Z" fill="white"/>
<path d="M281.992 14.9958C281.992 16.3787 281.69 17.6274 281.086 18.7505C280.483 19.8736 279.62 20.8374 278.505 21.6504C277.39 22.455 276.041 23.0836 274.465 23.5278C272.881 23.972 271.113 24.1983 269.135 24.1983C267.157 24.1983 265.456 23.972 263.888 23.5278C262.321 23.0836 260.972 22.455 259.849 21.6504C258.726 20.8458 257.854 19.882 257.242 18.7505C256.63 17.6191 256.32 16.3787 256.32 14.9958C256.32 13.6129 256.63 12.3892 257.242 11.2578C257.854 10.1263 258.726 9.15412 259.849 8.34953C260.972 7.54494 262.329 6.91636 263.905 6.47216C265.481 6.02796 267.232 5.80167 269.143 5.80167C271.054 5.80167 272.798 6.02796 274.382 6.47216C275.957 6.91636 277.315 7.54494 278.455 8.34953C279.586 9.15412 280.466 10.1179 281.078 11.2494C281.69 12.3725 282 13.6213 282 15.0041L281.992 14.9958ZM278.136 14.9958C278.136 14.0403 277.91 13.1854 277.449 12.4144C276.996 11.6517 276.36 11.0063 275.555 10.4867C274.75 9.96709 273.795 9.57318 272.689 9.2966C271.582 9.02002 270.401 8.88592 269.127 8.88592C267.853 8.88592 266.637 9.0284 265.548 9.2966C264.458 9.57318 263.511 9.96709 262.715 10.4867C261.919 11.0063 261.29 11.6517 260.838 12.4144C260.385 13.1771 260.15 14.0403 260.15 14.9958C260.15 15.9512 260.377 16.8396 260.838 17.6023C261.29 18.365 261.919 19.0103 262.715 19.53C263.511 20.0496 264.458 20.4519 265.565 20.7201C266.671 20.9967 267.853 21.1308 269.127 21.1308C270.401 21.1308 271.616 20.9967 272.705 20.7201C273.795 20.4435 274.75 20.0496 275.555 19.53C276.36 19.0103 276.988 18.3734 277.449 17.6023C277.902 16.8396 278.136 15.968 278.136 14.9958Z" fill="white"/>
</svg>